<?xml version="1.0" encoding="utf-8"?>
<!-- Generator: Adobe Illustrator 23.0.0, SVG Export Plug-In . SVG Version: 6.00 Build 0)  -->
<svg version="1.1" id="Layer_1" xmlns="http://www.w3.org/2000/svg" xmlns:xlink="http://www.w3.org/1999/xlink" x="0px" y="0px"
	 viewBox="0 0 512 512" style="enable-background:new 0 0 512 512;" xml:space="preserve">
<style type="text/css">
	.st0{fill:#3888FF;}
	.st1{fill:#FF3841;}
</style>
<path class="st0" d="M370,512H142c-25.4,0-46-20.6-46-46V46c0-25.4,20.6-46,46-46h228c25.4,0,46,20.6,46,46v420
	C416,491.4,395.4,512,370,512z M142,32c-7.7,0-14,6.3-14,14v420c0,7.7,6.3,14,14,14h228c7.7,0,14-6.3,14-14V46c0-7.7-6.3-14-14-14
	H142z"/>
<path class="st1" d="M288,88h-64c-8.8,0-16-7.2-16-16s7.2-16,16-16h64c8.8,0,16,7.2,16,16S296.8,88,288,88z"/>
</svg>
